# xmcd
#
# Track frame offsets: 
#        150
#        16505
#        36956
#        59094
#        77717
#        102437
#        117781
#        133260
#        157240
#        173371
#        185918
#
# Disc length: 2688 seconds
#
# Revision: 0
# Processed by: cddbd v1.5.2PL0 Copyright (c) Steve Scherf et al.
# Submitted via: ExactAudioCopy v1.0b3
#
DISCID=930a7e0b
DTITLE=Tamikrest - Kidal
DYEAR=2017
DGENRE=Desert Blues
TTITLE0=Mawarniha Tartit
TTITLE1=Wainan Adobat
TTITLE2=Manhouy Inerizhan
TTITLE3=War Toyed
TTITLE4=Atwitas
TTITLE5=Tanakra
TTITLE6=War Tila Eridaran
TTITLE7=Ehad Wad Nadorhan
TTITLE8=Erres Hin Atouan
TTITLE9=Adoutat Salilagh
TTITLE10=Adad Osan Itibat
EXTD=
EXTT0=
EXTT1=
EXTT2=
EXTT3=
EXTT4=
EXTT5=
EXTT6=
EXTT7=
EXTT8=
EXTT9=
EXTT10=
PLAYORDER=
